PathFileType	4	(X/Y/Z)	C:\Users\WrightLab\Desktop\Jo\P4V136.trc
DataRate	CameraRate	NumFrames	NumMarkers	Units	OrigDataRate	OrigDataStartFrame	OrigNumFrames
100.00	100.00	       11	19	mm	100.00	495	       565
Frame#	Time	Headset_Front			Headset_Back			Headset_Left			Headset_Right			Left_Shoulder			Right_Shoulder			Sternum			C7			Left Elbow			Right Elbow			Left Wrist			Right Wrist			Left ASIS			Right ASIS			S2			Left Knee			Right Knee			Left Ankle			Right Ankle			
		X1	Y1	Z1	X2	Y2	Z2	X3	Y3	Z3	X4	Y4	Z4	X5	Y5	Z5	X6	Y6	Z6	X7	Y7	Z7	X8	Y8	Z8	X9	Y9	Z9	X10	Y10	Z10	X11	Y11	Z11	X12	Y12	Z12	X13	Y13	Z13	X14	Y14	Z14	X15	Y15	Z15	X16	Y16	Z16	X17	Y17	Z17	X18	Y18	Z18	X19	Y19	Z19	

495	4.940				-90.45836	1785.54102	2291.58960							-21.68927	1594.33337	2288.15820				-186.42723	1511.87024	2327.79883				146.84154	1259.01465	2315.84082	-471.61169	1241.65356	2161.96436	114.44557	965.43536	2418.92969				0.77095	1091.13770	2355.21069							-28.47569	618.65118	2440.27710	-287.17859	597.59406	2249.24536	24.45406	115.85675	2343.51172				
496	4.950				-90.85620	1785.44446	2293.27979							-22.91076	1594.52246	2291.05664				-187.21565	1512.18738	2329.10938				144.95163	1258.56055	2321.40918	-473.30063	1242.20544	2165.31641	111.19742	964.71539	2423.48828				-0.92622	1091.86218	2358.36182							-31.07800	617.73029	2441.86450	-287.71088	597.65753	2250.45581	21.64370	114.71032	2352.15967				
497	4.960				-91.40388	1785.18799	2295.77368							-23.44762	1594.56409	2293.63794				-188.26662	1512.52087	2330.88379				142.48492	1257.89844	2326.59204	-473.87714	1242.67639	2167.74927	107.25681	964.23901	2428.80981				-1.80167	1091.38342	2360.95435							-32.27419	617.28345	2443.13721	-288.33804	597.57031	2251.38281	18.43282	112.80001	2357.38696				
498	4.970				-92.04274	1785.46570	2298.17627							-23.67921	1594.55615	2296.04053				-188.71872	1512.67908	2331.98560				140.34915	1257.45996	2333.19141	-474.17233	1243.30603	2170.16309	103.61665	963.43811	2433.86548				-3.54931	1091.96960	2364.34155							-33.59885	616.83618	2444.71680	-288.92966	597.68005	2252.30005	16.51852	111.38035	2363.75830				
499	4.980				-92.18456	1785.84937	2300.23218							-24.32018	1594.87964	2298.26050				-189.55214	1512.83325	2333.80688				137.56256	1257.05518	2338.29834	-474.57077	1244.70520	2173.09106	99.98123	962.70300	2439.07642				-5.26727	1092.47766	2368.07568							-35.29874	617.96149	2448.03931	-289.50375	597.75562	2253.07959	14.12309	110.68050	2369.88696				
500	4.990				-92.04214	1785.95776	2301.73901							-24.38545	1594.80786	2299.70752				-190.35925	1513.50024	2335.45288				135.49919	1256.67944	2343.83740	-474.53433	1245.28040	2174.58203	95.88445	962.63129	2444.37256				-6.36793	1092.19666	2370.91016							-36.69159	617.30908	2449.86987	-290.33405	597.96942	2253.98657	12.99481	109.66648	2373.35156				
501	5.000				-92.20327	1786.46045	2304.11865							-24.59367	1594.52502	2302.30640				-190.46570	1513.67041	2336.43823				133.09689	1256.30908	2350.42432	-474.31564	1245.57849	2175.90137	91.70567	962.34790	2449.90112				-8.19501	1092.60828	2374.63379							-37.39276	616.69196	2451.13013	-290.85587	597.91718	2254.53979	11.64025	109.00648	2377.41772				
502	5.010				-91.82538	1786.41113	2305.80273							-24.36951	1594.78125	2304.13623				-191.03796	1514.42090	2338.08813				130.88849	1255.70874	2355.78467	-473.71994	1245.70105	2177.07813	87.53365	961.90259	2455.70605				-8.94095	1092.18298	2377.10840							-38.46836	616.32672	2452.42578	-291.14838	598.00787	2255.25098	10.17943	108.77686	2380.99341				
503	5.020				-91.32298	1786.67529	2307.40527							-24.27759	1594.54993	2305.82495				-191.15486	1514.96008	2339.25049				128.84538	1255.11389	2361.08740	-472.77631	1245.97644	2178.03955	82.96800	961.85071	2461.96387				-10.35163	1092.63940	2380.39648							-39.48400	615.38239	2454.37280	-291.32504	598.04785	2255.81714	9.53610	108.63436	2382.42310				
504	5.030				-90.70670	1786.82068	2309.12695							-24.10711	1594.21765	2307.70337				-191.39629	1515.57227	2340.67188				126.58692	1254.64978	2366.81055	-471.02347	1246.31604	2178.09839	78.10078	962.30225	2468.58130				-11.85358	1092.77905	2383.99707							-40.09143	614.75256	2455.61768	-291.35941	598.09222	2256.23706	8.64775	108.33132	2383.09668				
505	5.040				-89.55693	1786.65466	2310.12354							-23.48509	1593.90454	2309.39160				-191.52724	1516.02039	2342.10889				124.15099	1253.58105	2370.58862	-470.04834	1246.15698	2178.94849	73.54830	962.63513	2474.78296				-12.37958	1092.66724	2386.39038							-40.45308	614.12378	2456.81421	-291.52890	597.90851	2256.68799	8.51434	108.32639	2383.42505				
